<svg xmlns="http://www.w3.org/2000/svg" width="23.572" height="24.97" viewBox="0 0 23.572 24.97">
  <g id="angular-icon" transform="translate(-0.849 -0.341)">
    <path id="Path_181" data-name="Path 181" d="M12.6.341.849,4.476,2.706,19.868l9.9,5.444,9.955-5.517L24.421,4.4Z" transform="translate(0 0)" fill="#b3b3b3"/>
    <path id="Path_182" data-name="Path 182" d="M137.989,18.108,127.31,14.466V36.827l8.95-4.953,1.729-13.766Z" transform="translate(-114.74 -12.816)" fill="#a6120d"/>
    <path id="Path_183" data-name="Path 183" d="M15.073,18.17l1.591,13.766,8.812,4.887V14.462l-10.4,3.708Z" transform="translate(-12.906 -12.812)" fill="#dd1b16"/>
    <path id="Path_184" data-name="Path 184" d="M59.142,34.319,56.2,35.693H53.1l-1.456,3.643-2.709.05L56.2,23.227l2.94,11.092Zm-.284-.692-2.636-5.218L54.06,33.537H56.2l2.656.09Z" transform="translate(-43.633 -20.765)" fill="#f2f2f2"/>
    <path id="Path_185" data-name="Path 185" d="M127.309,23.226l.019,5.181,2.453,5.133h-2.467l-.006,2.149,3.412,0,1.595,3.694,2.592.048-7.6-16.208Z" transform="translate(-114.739 -20.764)" fill="#b3b3b3"/>
  </g>
</svg>
