<svg xmlns="http://www.w3.org/2000/svg" width="23" height="26.083" viewBox="0 0 23 26.083">
  <g id="css-5" transform="translate(0 -491.4)">
    <path id="Path_172" data-name="Path 172" d="M2.094,514.877,0,491.4H23l-2.1,23.473-9.418,2.61Z" fill="#33a9dc"/>
    <path id="Path_174" data-name="Path 174" d="M885.5,851.809h4.126l.284-3.192H885.5V845.5h7.819l-.075.837-.766,8.593H885.5Z" transform="translate(-874.436 -349.692)" fill="#fff"/>
    <path id="Path_175" data-name="Path 175" d="M407.436,1629.824h-.014l-3.472-.938-.222-2.486H400.6l.437,4.9,6.388,1.778h.018v-3.249Z" transform="translate(-395.561 -1120.637)" fill="#ebebeb"/>
    <path id="Path_176" data-name="Path 176" d="M889.953,1506.2l-.375,4.172-3.478.938v3.249l6.392-1.772.046-.527.543-6.061h-3.128Z" transform="translate(-874.964 -1002.08)" fill="#fff"/>
    <path id="Path_177" data-name="Path 177" d="M338.711,845.5v3.118h-7.529l-.065-.7-.142-1.581-.075-.837Zm-.011,6.309v3.118h-3.433l-.06-.7-.142-1.581-.075-.837H338.7Z" transform="translate(-326.765 -349.692)" fill="#ebebeb"/>
  </g>
</svg>
