<svg xmlns="http://www.w3.org/2000/svg" width="23.311" height="26.899" viewBox="0 0 23.311 26.899">
  <g id="drupal-seeklogo.com" transform="translate(-0.909 -0.664)">
    <path id="Path_351" data-name="Path 351" d="M8.577,5.105C3.871,7.1.909,11.024.909,16.061a11.656,11.656,0,0,0,23.311,0c0-7.74-7.191-10.816-7.191-10.816a18.255,18.255,0,0,1-2.449-1.238A13.974,13.974,0,0,1,11.537.833a4.935,4.935,0,0,1-2.96,4.273" transform="translate(0 -0.153)" fill="#136da9"/>
    <path id="Path_352" data-name="Path 352" d="M113.446,261.116c-.409-.284-.312-1.19.8-.543,0,0,2.362,1.735,6.1-.347.291-.162.647.409-.277.932,0,0-3.779,1.934-6.622-.043Z" transform="translate(-102.048 -235.808)" fill="#f0f0f0"/>
    <path id="Path_353" data-name="Path 353" d="M113.446,261.116c-.409-.284-.312-1.19.8-.543,0,0,2.362,1.735,6.1-.347.291-.162.647.409-.277.932,0,0-3.779,1.934-6.622-.043Z" transform="translate(-102.048 -235.808)" fill="none" stroke="#fffdff" stroke-width="1"/>
    <path id="Path_354" data-name="Path 354" d="M143.165,231.272c1.375.161.9.822,1.271.924.751.208.428-.612.428-.612a1.668,1.668,0,0,0-1.514-1.04,3.152,3.152,0,0,0-2.623,1.2c-.277.612.111.644.254.578.728-.335,1.171-1.171,2.184-1.052Z" transform="translate(-126.947 -208.842)" fill="#f0f0f0"/>
    <path id="Path_355" data-name="Path 355" d="M143.165,231.272c1.375.161.9.822,1.271.924.751.208.428-.612.428-.612a1.668,1.668,0,0,0-1.514-1.04,3.152,3.152,0,0,0-2.623,1.2c-.277.612.111.644.254.578.728-.335,1.171-1.171,2.184-1.052Z" transform="translate(-126.947 -208.842)" fill="none" stroke="#fffdff" stroke-width="1"/>
    <path id="Path_356" data-name="Path 356" d="M2.84,22.688s4.179,3.458,14.349-4.245c0,0,5.108-3.207,4.954-8.7a11.737,11.737,0,0,0-4.442-3.6,19.86,19.86,0,0,1-5.764-4.461s-.341,6.919-9.2,9.65c0,0-2.233,3.294-1.016,8.646A25.894,25.894,0,0,0,2.84,22.688" transform="translate(-0.405 -0.919)" fill="#008ece"/>
    <path id="Path_357" data-name="Path 357" d="M59.447,176.253a2.962,2.962,0,0,1-3.051-3.606s.724-4.161,5.593-3.236a9.116,9.116,0,0,1,3.051,1.757,4.953,4.953,0,0,0,2.034.992,3.226,3.226,0,0,0,1.726-.684s2.377-1.834,3.208-1.78c.021,0,1.677-.181,1.677,2.489,0,0,.031,2.943-2.188,3.929a1.221,1.221,0,0,1-1.217-.462,12.536,12.536,0,0,0-2.712-2.4,1.826,1.826,0,0,0-1.2.046,7.817,7.817,0,0,0-2.28,1.264s-3.082,1.926-4.638,1.7Z" transform="translate(-50.383 -153.199)" fill="#f0f0f0"/>
    <path id="Path_358" data-name="Path 358" d="M59.447,176.253a2.962,2.962,0,0,1-3.051-3.606s.724-4.161,5.593-3.236a9.116,9.116,0,0,1,3.051,1.757,4.953,4.953,0,0,0,2.034.992,3.226,3.226,0,0,0,1.726-.684s2.377-1.834,3.208-1.78c.021,0,1.677-.181,1.677,2.489,0,0,.031,2.943-2.188,3.929a1.221,1.221,0,0,1-1.217-.462,12.536,12.536,0,0,0-2.712-2.4,1.826,1.826,0,0,0-1.2.046,7.817,7.817,0,0,0-2.28,1.264s-3.082,1.926-4.638,1.7Z" transform="translate(-50.383 -153.199)" fill="none" stroke="#fffdff" stroke-width="1"/>
    <path id="Path_359" data-name="Path 359" d="M25.008,9.787c2.245-3.215.634-9.122.634-9.122a4.951,4.951,0,0,1-2.9,4.263c-4.842,2.09-6.3,5.388-6.3,5.388,1.038,1.471,3.792,6.314,8.569-.528" transform="translate(-14.11 0)" fill="#008ece"/>
    <path id="Path_360" data-name="Path 360" d="M27.752.664s.291,2.7-1.173,3.575c0,0-2.348,1.093-3.064,1.451,0,0-3.015,1.82-4.008,3.53,0,0-2.127,2.846.809,2.173,0,0,5.309-1.5,7.466-6.021A.784.784,0,0,0,27.5,4.6s1.618-1.221.249-3.933" transform="translate(-16.22 0)" fill="#a0d8f1"/>
    <path id="Path_361" data-name="Path 361" d="M29.613.664a4.706,4.706,0,0,1-1.408,3.367s-.459.647-2.83,1.659a11.725,11.725,0,0,0-3.931,3.378s-1.8,2.175.669,1.592c0,0,5.01-1.846,6.846-5.237a.555.555,0,0,0-.13-.723A3.445,3.445,0,0,0,29.613.664" transform="translate(-18.081 0)" fill="#f0f0f0"/>
  </g>
</svg>
