<svg id="figma-1" xmlns="http://www.w3.org/2000/svg" width="23.131" height="34.697" viewBox="0 0 23.131 34.697">
  <path id="Path_191" data-name="Path 191" d="M5.783,211.566a5.785,5.785,0,0,0,5.783-5.783V200H5.783a5.783,5.783,0,1,0,0,11.566Z" transform="translate(0 -176.869)" fill="#0acf83"/>
  <path id="Path_192" data-name="Path 192" d="M0,105.783A5.785,5.785,0,0,1,5.783,100h5.783v11.566H5.783A5.785,5.785,0,0,1,0,105.783Z" transform="translate(0 -88.434)" fill="#a259ff"/>
  <path id="Path_193" data-name="Path 193" d="M0,5.783A5.785,5.785,0,0,1,5.783,0h5.783V11.566H5.783A5.785,5.785,0,0,1,0,5.783Z" fill="#f24e1e"/>
  <path id="Path_194" data-name="Path 194" d="M100,0h5.783a5.783,5.783,0,1,1,0,11.566H100Z" transform="translate(-88.434)" fill="#ff7262"/>
  <path id="Path_195" data-name="Path 195" d="M111.566,105.783A5.783,5.783,0,1,1,105.783,100,5.785,5.785,0,0,1,111.566,105.783Z" transform="translate(-88.434 -88.434)" fill="#1abcfe"/>
</svg>
