<svg id="github-icon-1" xmlns="http://www.w3.org/2000/svg" width="21.827" height="21.288" viewBox="0 0 21.827 21.288">
  <path id="Path_368" data-name="Path 368" d="M10.913,0a10.915,10.915,0,0,0-3.45,21.269c.545.1.746-.237.746-.525,0-.26-.01-1.12-.015-2.032-3.036.66-3.677-1.288-3.677-1.288a2.889,2.889,0,0,0-1.212-1.6c-.99-.677.075-.664.075-.664a2.294,2.294,0,0,1,1.673,1.125,2.323,2.323,0,0,0,3.176.907,2.324,2.324,0,0,1,.693-1.459C6.5,15.461,3.95,14.525,3.95,10.344A4.223,4.223,0,0,1,5.074,7.414,3.922,3.922,0,0,1,5.18,4.526s.916-.293,3,1.119a10.353,10.353,0,0,1,5.466,0c2.083-1.412,3-1.119,3-1.119a3.917,3.917,0,0,1,.107,2.888,4.215,4.215,0,0,1,1.123,2.929c0,4.192-2.553,5.115-4.983,5.385a2.609,2.609,0,0,1,.74,2.021c0,1.46-.013,2.635-.013,2.995,0,.29.2.631.75.524A10.915,10.915,0,0,0,10.913,0" fill="#e7e7e7"/>
  <path id="Path_369" data-name="Path 369" d="M44.632,179.657c-.024.054-.109.07-.187.033s-.124-.11-.1-.164.109-.071.188-.034.125.11.1.165m.537.479c-.052.048-.154.026-.223-.05a.167.167,0,0,1-.032-.227c.054-.048.152-.026.224.051s.085.178.031.227m.368.613c-.067.046-.176,0-.244-.094s-.067-.213,0-.26.175,0,.244.092.067.215,0,.263m.623.71c-.06.066-.187.048-.28-.042a.21.21,0,0,1-.062-.279c.061-.066.189-.048.283.042s.124.214.06.279m.8.24c-.026.085-.149.124-.273.088s-.2-.138-.179-.224.149-.126.273-.088.2.137.179.224m.916.1c0,.09-.1.165-.232.166s-.236-.07-.237-.159.1-.165.233-.167.236.07.236.159m.9-.034c.016.088-.075.178-.2.2s-.244-.031-.26-.118.076-.18.2-.2.245.03.261.12" transform="translate(-40.545 -164.11)" fill="#e7e7e7"/>
</svg>
