<svg xmlns="http://www.w3.org/2000/svg" width="25.018" height="29" viewBox="0 0 25.018 29">
  <g id="gsap-greensock" transform="translate(0)">
    <path id="Path_395" data-name="Path 395" d="M3.925,12.677A18.41,18.41,0,0,0,.407,15.4c-.448.531-.581-.3-.116-1.676A9.133,9.133,0,0,1,3.145,9.806a29.762,29.762,0,0,1,4.15-2.457,41.118,41.118,0,0,1,6.341-2.174c.249-.066-.3.415-.382.681-.432,1.261-9.046,6.673-9.046,6.673ZM16.059,27.9c.149.9.017.963-.913,1.079a2.413,2.413,0,0,1-1.859-.465,1.048,1.048,0,0,1-.05-1.212,2.742,2.742,0,0,0,.382-.764,1.86,1.86,0,0,1,.216-.564c.066-.116.083-.232.1-1.046s0-2.34.083-2.988c.083-.664,2.955.3,2.955.3s-.681,1.693-.863,2.108a4.176,4.176,0,0,0-.166,1.378,1.112,1.112,0,0,1-.116.515c-.05.017.166.448.066.7A3.229,3.229,0,0,0,16.059,27.9Zm1.1-25.379A5.478,5.478,0,0,1,17.287.444c.415-.564,2.606-.631,3.071.033a2.885,2.885,0,0,1,.149,1.444c-.033.448-.149,1.411-.166,1.726-.017.232-2.423.6-2.955-.033a3.7,3.7,0,0,1-.232-1.1Zm4.88,23.769a10.707,10.707,0,0,0,2.307,1.129c.515.266.382.78-.481.93a16.286,16.286,0,0,1-2.523-.133A8.143,8.143,0,0,1,18.549,28a.911.911,0,0,1-.282-1,4.125,4.125,0,0,0,.365-1.842,6.242,6.242,0,0,0-.481-1.643c-.249-.614-.431-2.125-.2-2.208s.166,0,.465.066a4.832,4.832,0,0,0,1.278.166,9.783,9.783,0,0,0,1.61-.149c.249-.05.448-.1.365.415a16.574,16.574,0,0,0-.349,2.224,12.458,12.458,0,0,0,.033,1.759c.05.149.415.315.681.5Z" transform="translate(0 0)" fill="#010101"/>
    <path id="Path_396" data-name="Path 396" d="M41.963,50.779c-1.826,1.577-5.361,2.008-10.606,4.033-1.345.515-4.93,2.058-5.793,3.668,2.9-1.676,3.984.631,4.216,3,.216,2.224,1.328,3.386,4.183,3.32,2.938-.066,3.834,1.643,4.648,3.652,1.577-7.685,4.1-9.179,5.726-10.49C47.789,55.161,43.54,50.215,41.963,50.779Z" transform="translate(-23.481 -46.6)" fill="#8ac640"/>
    <path id="Path_397" data-name="Path 397" d="M23.067,51.28c-4.382,1.527-8.714,1.909-13.81,5.046-1.212.747-3.768,2.44-4.266,5.677,1.859-2.058,6.158-4.648,11.42-6.291,2.656-.83,4.6-1.378,6.955-2.291C23.2,52.359,23.2,51.944,23.067,51.28Z" transform="translate(-4.584 -47.101)" fill="#8ac640"/>
    <path id="Path_398" data-name="Path 398" d="M207.142,43.257a2.777,2.777,0,0,1-.946,1.428s-.465.166-1.394-.349a1.2,1.2,0,0,1-.448-.83.774.774,0,0,1,.266-.581s.266-.448.581-.432.847.066,1.013-.083C206.362,42.244,207.176,42.709,207.142,43.257Zm-6.772-10.44a12.964,12.964,0,0,1-.183,1.378c-.017.1-.515.149-.88.3.7,1.992,4.9,1.975,5.444,1a7.231,7.231,0,0,0-1.046-.564c-.249-.1-.232-.083-.249-.548s-.05-1.328-.083-1.56A6.507,6.507,0,0,0,200.37,32.816Z" transform="translate(-183.067 -29.982)" fill="#010101"/>
    <path id="Path_399" data-name="Path 399" d="M213.068,33.166s0,.481-.05.946a3.91,3.91,0,0,1-.066.515,3.471,3.471,0,0,1,.73,1.378c.8,1.776,2.639.9,3.4.05a6.415,6.415,0,0,0-1.2-.631c-.249-.1-.133-.315-.149-.78s-.083-1.145-.116-1.394S213.467,32.933,213.068,33.166Z" transform="translate(-195.598 -30.331)" fill="#f0efef"/>
    <g id="Group_142" data-name="Group 142" transform="translate(17.158 0.245)">
      <path id="Path_400" data-name="Path 400" d="M211.6,32.816s-.017.3-.066.647c.216.216.5.515.714.7.149.133.514.116.847.116a2,2,0,0,0,.681-.033,3.467,3.467,0,0,0,.863-.714c-.017-.3-.033-.581-.05-.714C214.567,32.584,211.995,32.584,211.6,32.816Z" transform="translate(-211.45 -30.227)" fill="#010101"/>
      <path id="Path_401" data-name="Path 401" d="M213.572,11.721a3.675,3.675,0,0,1-.614-.05.976.976,0,0,1-.232-.1c-.116-.083-.232-.183-.365-.282-.266-.2-.282-.315-.282-.365A7.723,7.723,0,0,0,212.045,9s-.116-.448.515-.564a8.156,8.156,0,0,1,1.013-.133,5.307,5.307,0,0,1,1.013.133c.631.116.515.564.515.564a7.725,7.725,0,0,0-.033,1.925c0,.05-.017.166-.282.365a1.959,1.959,0,0,1-.6.382A3.676,3.676,0,0,1,213.572,11.721Z" transform="translate(-211.916 -7.87)" fill="#010101"/>
      <path id="Path_402" data-name="Path 402" d="M212.21,3.006a1.724,1.724,0,0,0-1.627.631,5.89,5.89,0,0,0,.1,1.643h.149a1.986,1.986,0,0,1-.083-.647c.017-.349.083-.332.033-.415-.066-.1-.2-.266.1-.432s.763.133,1.328.149c.564-.017,1.046-.315,1.344-.149s.166.332.1.432.017.066.033.415a1.988,1.988,0,0,1-.083.647h.149a8.758,8.758,0,0,0,.116-1.61C213.587,3.3,213.305,3.023,212.21,3.006Zm5.262,13.08a2.741,2.741,0,0,1-.929,1.361c-.133-.066-.116-.166-.232-.315-.033-.05-.149-.083-.2-.133s-.033-.133-.116-.2c-.066-.066-.116-.017-.183-.066-.066-.066-.083-.149-.133-.2-.033-.033-.166-.05-.2-.083-.083-.083-.813-.232-.78-.4a1.444,1.444,0,0,1,.2-.432s.315-.465.631-.448.614.083.78-.066C216.492,14.94,217.521,15.554,217.471,16.086Z" transform="translate(-210.553 -3.006)" fill="#010101"/>
      <path id="Path_403" data-name="Path 403" d="M266.373,72.981a2.066,2.066,0,0,1,1.759.432,1.886,1.886,0,0,1,.448,2.091,1.608,1.608,0,0,1,.266,1.527c1.1.929.614,2.357-.365,3.3a1.289,1.289,0,0,0-1.162-.913c.033-.332-.863-.6-.448-1.461-.631-.149-.614-.581-.714-1.112C266.075,76.317,266.373,72.981,266.373,72.981Z" transform="translate(-261.613 -67.238)" fill="#010101"/>
    </g>
    <path id="Path_404" data-name="Path 404" d="M263.437,76.368s1.212-.614,1.925.083a1.664,1.664,0,0,1,.3,1.992A1.6,1.6,0,0,1,266.01,80c-.05.166-.415.166-.681.6.664-.382,1.079-.282,1.228.2a2.491,2.491,0,0,1-.73,2.141c0-.017-.017-.033-.017-.05a2.532,2.532,0,0,1-.647,1.261.626.626,0,0,1-.73.166,4.122,4.122,0,0,1-.913-.481c-.266-.149-.116-.332-.116-.481a.341.341,0,0,1,.083-.149,1.337,1.337,0,0,1,.282-.365.7.7,0,0,1,.531-.282,1.285,1.285,0,0,0,.73-.133c0-.581-.664-.6-.432-1.593.017-.05.1-.133.365-.166a1.412,1.412,0,0,1-.863-.365,1.225,1.225,0,0,1-.4-.714C263.6,79.074,263.437,76.368,263.437,76.368Z" transform="translate(-241.901 -69.915)" fill="#f0efef"/>
    <path id="Path_405" data-name="Path 405" d="M165.28,54.183a3,3,0,0,0-1.593-1.062c-.282-.083-.465.149-.747.315-.083-.05-.448-.216-.647-.1a4.458,4.458,0,0,1-.531.315.9.9,0,0,0-.581.033,1.645,1.645,0,0,0-.863.647c-.2.714,3.519.183,3.519.183Z" transform="translate(-147.246 -48.776)" fill="#010101"/>
    <path id="Path_406" data-name="Path 406" d="M167.366,56.238c-.531-.183-.448-.8-1.627-.9-.232-.017-.382.166-.548.282a1.037,1.037,0,0,1,.216.349,1.379,1.379,0,0,0-.681-.432c-.249-.05-.415.133-.681.266a1.728,1.728,0,0,1,.166.232.679.679,0,0,0-.714-.083,1.833,1.833,0,0,0-.946.7c-.2.714,3.353-.083,3.353-.083Z" transform="translate(-149.298 -50.831)" fill="#8ac640"/>
    <path id="Path_407" data-name="Path 407" d="M257.95,62.594s0-.183-.017-.349c0-.033-.133-.116-.133-.149l-.033-.033a.632.632,0,0,1,.465-.066.658.658,0,0,1,.332.349c.382-.133.415.017.6.216.4-.083.448.066.7.432a2.942,2.942,0,0,0-.88.05A1.376,1.376,0,0,1,257.95,62.594Z" transform="translate(-236.762 -56.922)" fill="#010101"/>
    <path id="Path_408" data-name="Path 408" d="M259.188,66.277s.1-.083.066-.1c.183-.1.432-.216.548.1.382-.133.432.05.614.249.465-.216.5.05.531.166a6.556,6.556,0,0,0-.664.05A1.536,1.536,0,0,1,259.188,66.277Z" transform="translate(-238.066 -60.687)" fill="#8ac640"/>
    <path id="Path_409" data-name="Path 409" d="M177.212,63.5a5.285,5.285,0,0,0,1.743.282,5.691,5.691,0,0,1,2.888.3A2.794,2.794,0,0,1,183.287,64a2.4,2.4,0,0,1,1.594,2.639.978.978,0,0,1-.5.3,1.718,1.718,0,0,1-.1,1.029,5.294,5.294,0,0,0-.764,2.506c-.017.2-.05.614-.083.813-1.295-.05-3.286-.531-5.245-.5.017-.216.033-.349.05-.564h.05c-.1-.548-.133-.83-.232-1.245a5.494,5.494,0,0,1-1.859-1.743C175.652,66.356,177.212,63.5,177.212,63.5Zm6.407,8.963s1.029,3.685-.183,5.229a2.2,2.2,0,0,1-.232,1.477c-.066.332-.149.631-.2.963a23.47,23.47,0,0,0-.681,4.166l-1-.017a10.4,10.4,0,0,0-.465-2.44c-.2-.481-.979-1.129-.946-1.776.033-.5.133-.913.979-1.577.066-.963-.9-1.876-.747-5.461Z" transform="translate(-161.734 -58.326)" fill="#010101"/>
    <path id="Path_410" data-name="Path 410" d="M187.555,72.315c.266,1.693.88,4.2-.232,5.428a2.5,2.5,0,0,1,.017.946,3.871,3.871,0,0,1-.183.647,5.958,5.958,0,0,0-.282,1.328,23.3,23.3,0,0,0-.315,3.652l-1-.017a10.4,10.4,0,0,0-.465-2.44,4.334,4.334,0,0,1-.647-1.544c-.033-.5.315-1.494,1.145-1.461-.05-2.008-.979-1.61-1.228-5.793ZM181.447,63.5a3.929,3.929,0,0,0,.763.149,9.794,9.794,0,0,0,1.212-.017,4.9,4.9,0,0,1,2.672.282,2.571,2.571,0,0,1,.863-.1,4.484,4.484,0,0,1,.631.249,2.1,2.1,0,0,1,1.112,2.49c-.033.083-.266,0-.531.083a2.2,2.2,0,0,1-.183,1.328,4.8,4.8,0,0,0-.581,2.689c-1.743-.083-2.523-.2-4.249-.282a9.975,9.975,0,0,1-.266-1.544,1.654,1.654,0,0,0,.548-.415,1.272,1.272,0,0,1-1-.116,4.951,4.951,0,0,1-1.1-1.046c-.033-.033-.216.514-.631.531-.149-.216.481-.83.365-1.062C180.666,65.875,181.447,63.5,181.447,63.5Z" transform="translate(-165.969 -58.326)" fill="#f0efef"/>
    <path id="Path_411" data-name="Path 411" d="M203.849,150.443s.033.6.033.747c0,.166.133.664.149.9a3.735,3.735,0,0,1-2.423,1.295c-1.427.3-3.32-1.942-3.32-1.942.05-.216.216-.847.332-1.178a.527.527,0,0,0,.05-.149C198.82,149.9,203.849,150.443,203.849,150.443Z" transform="translate(-182.131 -137.833)" fill="#010101"/>
    <path id="Path_412" data-name="Path 412" d="M209.845,146.758a4.787,4.787,0,0,0,.116.979,8.473,8.473,0,0,1,.216,1.112c0,.963-1.261.8-2.324.83-1.427.3-2.639-1.942-2.639-1.942a9.482,9.482,0,0,1,.315-1.179c.017-.2.05-.448.066-.564a42.413,42.413,0,0,1,4.282.2A1.44,1.44,0,0,1,209.845,146.758Z" transform="translate(-188.491 -134.098)" fill="#f0efef"/>
    <path id="Path_413" data-name="Path 413" d="M179.066,164.9a2.943,2.943,0,0,0-3.519-1.378c-.631,1.776-1.477,3.818-.929,6.025a3.544,3.544,0,0,0-1.179,2.54,9.012,9.012,0,0,0,.066,1.61l1.942.1a5.8,5.8,0,0,0,.88-1.693,3.6,3.6,0,0,0,.083-1.212,1.322,1.322,0,0,0,.382-.78,3.778,3.778,0,0,0,1.494-1.71c.515-1.1.382-2.042.78-3.5Z" transform="translate(-159.306 -150.096)" fill="#010101"/>
    <path id="Path_414" data-name="Path 414" d="M184.53,164.258c-.05-.183-.714-1.975-3.17-1.444-1.444,3.851-.913,5.444-.7,6.141-.979,1.245-1.427,1.51-1.228,4.033h1.295a3.855,3.855,0,0,0,.763-2.54c0-.05-.183.1-.315.266.1-.515.382-.614.6-.929a.983.983,0,0,0,.183-.6,4.3,4.3,0,0,0,1.842-2.772A7.932,7.932,0,0,1,184.53,164.258Z" transform="translate(-164.77 -149.456)" fill="#f0efef"/>
    <g id="Group_143" data-name="Group 143" transform="translate(10.629 4.973)">
      <path id="Path_415" data-name="Path 415" d="M164.118,148.846a3.49,3.49,0,0,1,.847.149.876.876,0,0,1,.531.382c.149.166.515.415.448.664-.033.133-.116.166-.232.282-.05.05-.415.448-.5.5-.05.033-.116.083-.166.116l-.249.166a.778.778,0,0,1-.465.116,1.094,1.094,0,0,1-.681-.3s-.033-.133.033-.2a2.393,2.393,0,0,1-.448-.5.841.841,0,0,1-.033-.631c.033-.15.68-.564.913-.747Zm.415,16.15-.05.415s-.149.183-1.261.166c-1.129-.017-1.427-.365-1.527-.548l-.066-.432s.216-.315.266-.315c.365.033,1.61.531,2.473.664C164.45,164.946,164.466,164.98,164.533,165Zm2.407-.847c0,.183-.017.183-.017.365a3.187,3.187,0,0,0,1.643.216c1.378-.033,2.656.415,4.216.149l.017-.3-.149-.017-5.527-.448Z" transform="translate(-159.087 -141.69)" fill="#010101"/>
      <path id="Path_416" data-name="Path 416" d="M139.5,84.068h.415c.9-.033,1.743.166,2.656.216.481-.017,1.079-.133,1.029-.481l-4.714-.4C138.609,83.72,138.824,83.985,139.5,84.068Zm-5.411-6.988a4.884,4.884,0,0,0,2.805.614,3.6,3.6,0,0,1-.747,2.008,5.379,5.379,0,0,0-.747,2.639c.017.266.166.5-.033.847a9.527,9.527,0,0,0,.465.913c.133.266.2.564-.681.581-.9.017-2.34-.083-2.141-.78.1-.365.382-.747.415-.9a1.611,1.611,0,0,1,.315-.9,6.445,6.445,0,0,0,.116-2.374A5.629,5.629,0,0,1,134.094,77.08Zm1.544-13.528c1.178-1.577.183-2.838-1.71-2.457a1.8,1.8,0,0,0-1.577,1.643c-.249.033-.813.066-1.1,1.1a2.338,2.338,0,0,1-.714,1.344c-.249.282.017.863.2,1.278.614,1.427,2.506,1.56,3.784,2.639a1.842,1.842,0,0,0,1.012-.913c-1.079-1.278-.847-1.776-1.278-2.44A2.073,2.073,0,0,0,135.637,63.553Z" transform="translate(-130.44 -61.027)" fill="#010101"/>
    </g>
    <path id="Path_417" data-name="Path 417" d="M142.5,65.652c.066-.1.183-.315.232-.4.017-.017.2.3.216.282.448-.73.564-1.793.05-1.892a2.942,2.942,0,0,1-.515-.133,2.067,2.067,0,0,0-1.162-.017,1.625,1.625,0,0,0-1.461,1.427,1.364,1.364,0,0,1,.664.813c-.249-.349-.681-.73-1.2-.4-.548.349-.266,1.145-1,1.975-.249.282-.216.614.05,1.278.432,1.046,2.473,1.61,3.585,2.606a1.5,1.5,0,0,0,.581-.581,5.9,5.9,0,0,1-1.261-2.042,3.35,3.35,0,0,0-1.145-1.428,3.024,3.024,0,0,1,.664.332.661.661,0,0,0,.564.05A2.193,2.193,0,0,0,142.5,65.652Z" transform="translate(-126.901 -58.253)" fill="#f0efef"/>
    <path id="Path_418" data-name="Path 418" d="M201.387,86.57c-.05.631-.515.315-.763.2a3.857,3.857,0,0,0-1.577-.365,8.36,8.36,0,0,0-1.975.216c-.9.249-1.162.232-1.56.033a11.886,11.886,0,0,1-1.1-.747.591.591,0,0,0,.149.382,3.063,3.063,0,0,0,1.344.813,1.462,1.462,0,0,0,.847-.033,5.637,5.637,0,0,1,4.349.365c.066.033.3-.066.4-.216C201.636,87,201.387,86.57,201.387,86.57Z" transform="translate(-178.573 -78.905)" fill="#010101"/>
    <path id="Path_419" data-name="Path 419" d="M187.291,171.658a3.211,3.211,0,0,1,.481.282.367.367,0,0,1-.216-.066A2.344,2.344,0,0,1,187.291,171.658Z" transform="translate(-172.029 -157.67)" fill="#0a1825"/>
    <path id="Path_420" data-name="Path 420" d="M217.532,5.457c-.05-.149-.415-.415-1.261-.415-.913,0-1.179.282-1.2.432,0,.05-.066.581-.083.8,0,0,0,.266.017.664.017.266.083.415.116.764a1.878,1.878,0,0,0,.315.9.765.765,0,0,0,.232.116,3.4,3.4,0,0,0,1.228,0,.907.907,0,0,0,.465-.647c.066-.349.133-.6.149-.813.033-.216.05-.7.066-.83A3.488,3.488,0,0,0,217.532,5.457Z" transform="translate(-197.472 -4.631)" fill="#f0efef"/>
    <path id="Path_421" data-name="Path 421" d="M223.342,261.892a6.188,6.188,0,0,0,3.054.05,17.316,17.316,0,0,0-.332,4.631s.282.4,2.374,1.162c0,0,.929.232.9.7,0,0,.033.1-1.1.066s-2.191-.232-2.938-.232-1.544.033-1.676-.183c-.149-.2.033-.714.249-1.013.232-.315.166-.548.149-1.112C223.973,264.481,222.844,262.954,223.342,261.892Z" transform="translate(-205.026 -240.55)" fill="#010101"/>
    <path id="Path_422" data-name="Path 422" d="M222.033,265.259a2.886,2.886,0,0,0,.183,1.411,7.278,7.278,0,0,1,.614,1.992c.083,1,.1,1.129-.183,1.71s-.365,1.112.614,1.129a15.963,15.963,0,0,1,2.506.133,5.707,5.707,0,0,0,1.892.116c.548-.083.664-.266.432-.432a12.329,12.329,0,0,1-1.61-.681c-.4-.3-1.527-.8-1.544-.929a17.138,17.138,0,0,1,.017-2.606c.083-.531.2-1.295.232-1.494s.2-.4-.083-.332a9.608,9.608,0,0,1-2.141.166A4.2,4.2,0,0,1,222.033,265.259Z" transform="translate(-203.899 -243.635)" fill="#8ac640"/>
    <path id="Path_423" data-name="Path 423" d="M222.157,276.152a2.655,2.655,0,0,0,1.013.232,1.544,1.544,0,0,0,.066.88c.183.332-1.328.133-1.328.133l-.066-1.178Zm4.4,1.427a.414.414,0,0,0,.232-.664c-.232-.282-.432-.332-.133-.349a5.524,5.524,0,0,1,1.394.647l-.564.515Zm-5.013-5.909a4.5,4.5,0,0,0,1.461.149,6.78,6.78,0,0,0,1.726-.249c.481-.166.282.183.282.183l-.266.249a4.712,4.712,0,0,1-1.66.232,5.8,5.8,0,0,1-1.577-.149Zm.033.83a4.5,4.5,0,0,0,1.461.149,5.5,5.5,0,0,0,1.643-.2c.2-.066.083.216.083.216l-.083.149a5.112,5.112,0,0,1-1.66.216,5.043,5.043,0,0,1-1.427-.116Z" transform="translate(-203.459 -249.399)" fill="#010101" opacity="0.3"/>
    <path id="Path_424" data-name="Path 424" d="M223.342,261.892a6.235,6.235,0,0,0,3.071.166,16.019,16.019,0,0,0-.349,4.5s.282.4,2.374,1.162c0,0,.929.232.9.7,0,0,.033.1-1.1.066s-2.191-.232-2.938-.232-1.544.033-1.676-.183c-.149-.2.033-.714.249-1.013.232-.315.166-.548.149-1.112C223.973,264.481,222.844,262.954,223.342,261.892Z" transform="translate(-205.026 -240.55)" fill="none"/>
    <path id="Path_425" data-name="Path 425" d="M223.342,261.892a6.35,6.35,0,0,0,3.071.149,16.16,16.16,0,0,0-.349,4.515s.282.4,2.374,1.162c0,0,.929.232.9.7,0,0,.033.1-1.1.066a24.415,24.415,0,0,0-2.938-.232c-.78.133-1.544.083-1.676-.183a1.24,1.24,0,0,1,.249-1.013c.232-.315.166-.548.149-1.112C223.973,264.481,222.844,262.954,223.342,261.892Z" transform="translate(-205.026 -240.55)" fill="none"/>
    <path id="Path_426" data-name="Path 426" d="M208.881,140.7a5.611,5.611,0,0,0,2.008.9,10.139,10.139,0,0,0,2.44-.05l-.033.232a9.182,9.182,0,0,1-3.137-.1c-1.361-.365-1.212-.448-1.212-.448Z" transform="translate(-191.859 -129.233)" fill="#010101"/>
    <path id="Path_427" data-name="Path 427" d="M165.388,264.677a2.769,2.769,0,0,0,1.378.183,14.426,14.426,0,0,1,.183-1.66,9.885,9.885,0,0,0,.9-2.556,10.4,10.4,0,0,1-1.909-.382A21.952,21.952,0,0,0,165.388,264.677Zm1.112,1.046c.116.033.2.166.232.083.066-.149-.116-.432-.133-.631v-.017a2.19,2.19,0,0,0-1.1-.083c-.116.216-.3.183-.365.614-.033.216.232.033.481.017-.448.3-.963.681-1.046,1.013-.1.465.066.6.564.847a5.359,5.359,0,0,0,1.344.1c.448-.083.531-.3.4-.6A6.025,6.025,0,0,1,166.5,265.723Z" transform="translate(-151.139 -239.053)" fill="#f0efef"/>
    <path id="Path_428" data-name="Path 428" d="M189.46,62.686a2.935,2.935,0,0,0,1.593.216c.066,0,.73-.116.764-.1.066.017.066.066.066.066a2.154,2.154,0,0,1-.813.166,3.553,3.553,0,0,1-1.51-.166C189.145,62.686,189.46,62.686,189.46,62.686ZM195.1,63a4.4,4.4,0,0,1,1.029.614c.249.266.116.249.066.183a3.959,3.959,0,0,0-.78-.515,1.431,1.431,0,0,1-.448-.266C194.971,62.985,195.1,63,195.1,63Z" transform="translate(-173.916 -57.578)" fill="#010101"/>
    <path id="Path_429" data-name="Path 429" d="M184.191,151.025a1.621,1.621,0,0,1,1.295.415c.166.166.432.349.4.515a.86.86,0,0,1-.183.282c-.05.066-.2.216-.249.266-.066.05-.3.232-.349.266s-.116.116-.166.133a.575.575,0,0,1-.515-.066c-.166-.083.033-.1-.149-.232-.448-.315-.7-.531-.515-1.145C183.776,151.34,183.959,151.207,184.191,151.025Z" transform="translate(-168.73 -138.713)" fill="#f0efef"/>
    <path id="Path_430" data-name="Path 430" d="M65.953,102.577c-1.494.6-5.295,2.49-6.374,3.071.9.564,1.311,1.925,1.444,3.3.017.133.033.249.05.382a1.6,1.6,0,0,0,.05.249.1.1,0,0,0,.017.066c.979-2.672,4.482-5.494,4.614-5.71.066-.1-.083-.531.149-.946C66.2,102.461,66.783,102.228,65.953,102.577ZM69.5,115.109a9.594,9.594,0,0,0,.763-4.7c0-.714.515-1.726.249-1.444-1,1.112-3.5,3.2-5.312,3.32C67.745,112.2,68.741,113.482,69.5,115.109Z" transform="translate(-54.724 -94.066)" fill="#010101" opacity="0.4"/>
    <path id="Path_431" data-name="Path 431" d="M41.654,108.923a54.024,54.024,0,0,1,7.021-3.652c1.178-.382.813-.83.813-.83a72.723,72.723,0,0,0-7.635,3.834" transform="translate(-38.26 -95.93)" fill="#010101"/>
    <path id="Path_432" data-name="Path 432" d="M188.749,47.813c-.382-.149-.681.3-.581.73s1,.913.946,2.49a4.517,4.517,0,0,1-.315,1.826l-.631-.8A8.29,8.29,0,0,0,187.852,50c-.216-.266-.9-.747-1.162-1s.3-.581.266-1.046a4.8,4.8,0,0,1,.282-1.344Zm2.307,7.071a28.959,28.959,0,0,0,.365,3.967c.116.88.266.946,0,1.345-.266.382-.614,1.013-.614,1.013l-1.145-.1a11.285,11.285,0,0,0,.963-1.378,12.11,12.11,0,0,0-.465-1.859Zm-2.208-11.619a1.467,1.467,0,0,0,.963.9c.266.1,1.311.232,1.726-.232.183-.216.066-.8.066-.8l-.946.763-1.278-.232-.149-.382Z" transform="translate(-171.412 -39.617)" fill="#010101" opacity="0.4"/>
    <path id="Path_433" data-name="Path 433" d="M213.7,58.816a6.752,6.752,0,0,0,1.809.6c.3.066.78-.315,1.013-.415a1.032,1.032,0,0,1,1.178.266c.05.05-.116.266-.116.266a1.912,1.912,0,0,1-.249-.083.75.75,0,0,0-.448-.1c-.83.1-.963.382-1.693.216a4.7,4.7,0,0,0-1.627-.266" transform="translate(-196.163 -54.023)" fill="#8ac640" stroke="#010101" stroke-linejoin="round" stroke-miterlimit="10" stroke-width="1.586"/>
    <path id="Path_434" data-name="Path 434" d="M212.99,59.427a14.317,14.317,0,0,0,1.909.548c.3.066.78-.232,1.013-.382a.974.974,0,0,1,1.2.232c.166.183.232.3.232.349,0,.066-.2,0-.2,0a2.154,2.154,0,0,1-.349-.133.817.817,0,0,0-.465-.149c-.83.1-1,.382-1.71.216a4.306,4.306,0,0,0-1.66-.266" transform="translate(-195.603 -54.584)" fill="#8ac640"/>
    <path id="Path_435" data-name="Path 435" d="M68.6,153.881c-.033-.033.033-.066,0-.066a.957.957,0,0,1-.681-.4,3.881,3.881,0,0,0-3.652-1.66c-2.838.066-3.967-1.1-4.183-3.32a5.024,5.024,0,0,0-1.129-3.054l-.4.249c.763.664,1.013,1.743,1.179,3.22.266,2.224,2.058,3.253,4.15,3.286,2.174.033,2.955.481,3.768,1.577a1.3,1.3,0,0,0,.8.515Z" transform="translate(-53.787 -133.536)" fill="#010101"/>
    <path id="Path_436" data-name="Path 436" d="M270.128,118.7a1.887,1.887,0,0,0,.448.963c.116.116.133.149.033.149s-.83-.033-.83-.033l-.2-.349Z" transform="translate(-247.612 -109.027)" fill="#010101" opacity="0.4"/>
  </g>
</svg>
