<svg xmlns="http://www.w3.org/2000/svg" width="23" height="26.084" viewBox="0 0 23 26.084">
  <g id="html5" transform="translate(-221.807 -211.522)">
    <path id="Path_166" data-name="Path 166" d="M223.9,235l-2.093-23.477h23L242.712,235l-9.419,2.611Z" fill="#f16529"/>
    <path id="Path_168" data-name="Path 168" d="M311.188,309.02h-3.96l-.274-2.879h4.234V303.33h-7.5l.072.754.736,7.747h6.7Zm0,7.3-.013,0-3.333-.845-.213-2.242h-3l.419,4.414,6.13,1.6.014,0Z" transform="translate(-77.673 -86.82)" fill="#ebebeb"/>
    <path id="Path_170" data-name="Path 170" d="M441.617,309.02v2.811H445.3l-.347,3.646-3.338.846v2.925l6.135-1.6.045-.475.7-7.4.073-.755h-6.957Zm0-5.69v2.811h7.229l.06-.632.136-1.425.072-.754Z" transform="translate(-208.527 -86.82)" fill="#fff"/>
  </g>
</svg>
