<svg xmlns="http://www.w3.org/2000/svg" width="21.681" height="21.682" viewBox="0 0 21.681 21.682">
  <path id="instagram-glyph-1" d="M7.228,10.841a3.613,3.613,0,1,1,3.613,3.614,3.613,3.613,0,0,1-3.613-3.614m-1.954,0a5.567,5.567,0,1,0,5.567-5.567,5.567,5.567,0,0,0-5.567,5.567M15.327,5.054a1.3,1.3,0,1,0,1.3-1.3,1.3,1.3,0,0,0-1.3,1.3M6.461,19.665a5.988,5.988,0,0,1-2.013-.373A3.372,3.372,0,0,1,3.2,18.481a3.351,3.351,0,0,1-.811-1.246,5.988,5.988,0,0,1-.373-2.013c-.053-1.143-.063-1.486-.063-4.381S1.965,7.6,2.017,6.46A6.016,6.016,0,0,1,2.39,4.447,3.372,3.372,0,0,1,3.2,3.2a3.347,3.347,0,0,1,1.247-.811,5.988,5.988,0,0,1,2.013-.373c1.143-.053,1.486-.063,4.38-.063s3.237.011,4.381.063a6.016,6.016,0,0,1,2.013.373,3.361,3.361,0,0,1,1.247.811,3.365,3.365,0,0,1,.811,1.247,5.988,5.988,0,0,1,.373,2.013c.053,1.144.063,1.486.063,4.381s-.011,3.237-.063,4.381a6.011,6.011,0,0,1-.373,2.013,3.589,3.589,0,0,1-2.058,2.057,5.988,5.988,0,0,1-2.013.373c-1.143.053-1.486.063-4.381.063s-3.237-.011-4.38-.063M6.371.066a7.952,7.952,0,0,0-2.631.5A5.32,5.32,0,0,0,1.82,1.82,5.3,5.3,0,0,0,.569,3.74a7.952,7.952,0,0,0-.5,2.631C.012,7.527,0,7.9,0,10.841s.012,3.314.066,4.469a7.952,7.952,0,0,0,.5,2.631,5.3,5.3,0,0,0,1.25,1.92,5.316,5.316,0,0,0,1.92,1.25,7.957,7.957,0,0,0,2.631.5c1.157.053,1.525.066,4.469.066s3.314-.012,4.469-.066a7.952,7.952,0,0,0,2.631-.5,5.543,5.543,0,0,0,3.171-3.171,7.929,7.929,0,0,0,.5-2.631c.053-1.157.065-1.525.065-4.469s-.012-3.314-.065-4.469a7.952,7.952,0,0,0-.5-2.631,5.331,5.331,0,0,0-1.25-1.92A5.317,5.317,0,0,0,17.943.569a7.939,7.939,0,0,0-2.631-.5C14.155.013,13.786,0,10.842,0S7.528.012,6.371.066" fill="#f5f9ff"/>
</svg>
