<svg id="logo-javascript" xmlns="http://www.w3.org/2000/svg" width="23" height="23" viewBox="0 0 23 23">
  <path id="Path_178" data-name="Path 178" d="M0,0H23V23H0Z" fill="#ffe748"/>
  <path id="Path_179" data-name="Path 179" d="M290.323,483.731c-.154-.962-.782-1.77-2.641-2.524-.646-.3-1.365-.509-1.58-1a1.089,1.089,0,0,1-.038-.618,1.015,1.015,0,0,1,1.335-.573,1.469,1.469,0,0,1,.858.8c.91-.589.908-.585,1.544-.99a3.935,3.935,0,0,0-.509-.682,2.974,2.974,0,0,0-2.486-.9l-.622.08a2.82,2.82,0,0,0-1.5.882,2.761,2.761,0,0,0,.5,3.932c1.2.9,2.955,1.1,3.18,1.943.219,1.029-.756,1.361-1.724,1.243a2.26,2.26,0,0,1-1.54-1.171c-.79.457-.79.457-1.6.924a3.565,3.565,0,0,0,.718.976c1.528,1.55,5.352,1.474,6.037-.872A2.9,2.9,0,0,0,290.323,483.731Zm-7.9-6.368H280.45c0,1.7-.008,3.4-.008,5.1a8.342,8.342,0,0,1-.12,2.384,1.108,1.108,0,0,1-1.378.409,1.694,1.694,0,0,1-.728-.756,1.013,1.013,0,0,0-.112-.18q-.8.49-1.6.982a3.17,3.17,0,0,0,1.163,1.331,3.83,3.83,0,0,0,2.819.347,2.491,2.491,0,0,0,1.592-1.247,6.118,6.118,0,0,0,.349-2.939C282.433,480.986,282.423,479.177,282.423,477.363Z" transform="translate(-270.488 -466.863)" fill="#323330"/>
</svg>
