<svg xmlns="http://www.w3.org/2000/svg" width="23.797" height="22.939" viewBox="0 0 23.797 22.939">
  <path id="jquery-icon" d="M1.624,5.853C-.481,8.882-.221,12.821,1.389,16.047c.037.077.078.153.118.229l.074.145c.015.028.031.056.047.083.028.052.056.1.084.15l.154.263.088.144.179.279.076.118c.084.125.17.25.258.372l.051.068q.115.158.235.313l.089.113.217.268.083.1c.1.117.2.233.3.346a.23.23,0,0,1,.018.019q.152.164.308.324l.1.1.246.241.1.1q.166.156.337.307l.369.313.126.1.255.2.136.1.286.205.134.094c.092.063.185.124.278.184l.121.08q.215.137.435.266l.121.074.327.183c.06.032.121.063.181.093l.234.121.054.026.1.046.371.171.078.035q.215.093.432.179l.1.042L9.1,22.8l.052.018q.226.078.454.149l.11.033a3.818,3.818,0,0,0,.469.132C20.375,24.986,23.333,17,23.333,17c-2.485,3.238-6.9,4.092-11.087,3.141-.158-.036-.313-.085-.467-.131l-.116-.035q-.226-.069-.449-.147l-.062-.022q-.2-.071-.4-.147l-.112-.045q-.216-.085-.428-.179l-.086-.037-.361-.168-.1-.05c-.094-.045-.186-.094-.279-.149l-.186-.1c-.113-.06-.223-.124-.335-.188l-.113-.063q-.22-.13-.435-.266L8.2,18.346l-.31-.206a.963.963,0,0,1-.1-.07L7.5,17.857l-.13-.1L7.1,17.552l-.118-.094-.329-.278-.037-.03-.346-.315-.1-.094L5.931,16.5l-.1-.1c-.1-.106-.205-.214-.3-.323a.155.155,0,0,1-.015-.016q-.158-.173-.31-.353l-.074-.1-.223-.275-.074-.1-.257-.342C2.248,11.728,1.413,7.354,3.269,3.768m4.9-.465a7.326,7.326,0,0,0-.253,7.447,9.718,9.718,0,0,0,.674,1.125,5.342,5.342,0,0,0,.784.979c.11.121.225.238.342.355L9.8,13.3q.171.166.349.324c.005,0,.009.009.015.013.135.119.272.223.411.341l.092.072q.209.161.427.312l.013.009c.064.045.129.086.195.129.031.02.061.042.092.061q.156.1.316.193l.045.026.28.149c.033.019.074.034.1.052l.2.1.03.013q.2.1.408.19l.089.037q.166.071.335.135l.143.052q.153.056.307.106l.139.045a3.7,3.7,0,0,0,.444.129c7.867,1.3,9.683-4.762,9.683-4.762a7.471,7.471,0,0,1-8.191,2.6q-.224-.059-.446-.129l-.134-.043-.313-.107-.149-.052q-.168-.065-.335-.135l-.091-.037q-.208-.09-.411-.19l-.206-.1-.119-.061q-.131-.071-.26-.147l-.063-.035q-.16-.094-.315-.193c-.032-.02-.063-.042-.1-.063l-.2-.135q-.216-.15-.424-.311l-.1-.074A9.444,9.444,0,0,1,8.845,7.232a7.1,7.1,0,0,1,.554-5.7M13.665,1.4A4.588,4.588,0,0,0,13.3,5.82a6.26,6.26,0,0,0,3.576,3.348l.195.074.086.027.281.074c4.344.839,5.521-2.229,5.836-2.681-1.032,1.486-2.766,1.842-4.895,1.326-.168-.041-.353-.1-.515-.159a6.3,6.3,0,0,1-.612-.254,6.325,6.325,0,0,1-1.072-.654c-1.9-1.444-3.087-4.208-1.845-6.452" transform="translate(-0.113 -0.47)" fill="#0868ac"/>
</svg>
