<svg xmlns="http://www.w3.org/2000/svg" width="72.548" height="69.327" viewBox="0 0 72.548 69.327">
  <path id="linkedin-icon-1" d="M0,13.053A7.541,7.541,0,0,1,2.451,7.276,8.992,8.992,0,0,1,8.823,5a8.723,8.723,0,0,1,6.232,2.241,7.9,7.9,0,0,1,2.451,6.022,7.374,7.374,0,0,1-2.381,5.6,9.008,9.008,0,0,1-6.443,2.311h-.07a8.57,8.57,0,0,1-6.232-2.311A7.761,7.761,0,0,1,0,13.053ZM.91,74.327V27.549H16.456V74.327Zm24.159,0H40.616V48.207a10.081,10.081,0,0,1,.56-3.781A10.155,10.155,0,0,1,44.152,40.4a7.608,7.608,0,0,1,5.007-1.646Q57,38.753,57,49.327v25H72.548V47.507q0-10.364-4.9-15.721T54.691,26.428A15.892,15.892,0,0,0,40.616,34.2v.14h-.07l.07-.14V27.549H25.07q.14,2.241.14,13.935T25.07,74.327Z" transform="translate(0 -5)" fill="#f5f9ff"/>
</svg>
