<svg xmlns="http://www.w3.org/2000/svg" width="21.962" height="16.476" viewBox="0 0 21.962 16.476">
  <g id="official-gmail-icon-2020-" transform="translate(0 -64.724)">
    <g id="Group_117" data-name="Group 117" transform="translate(0 64.724)">
      <path id="Path_370" data-name="Path 370" d="M1.5,175.956H4.991v-8.485L0,163.727v10.731a1.5,1.5,0,0,0,1.5,1.5Z" transform="translate(0 -159.48)" fill="#f5f9ff"/>
      <path id="Path_371" data-name="Path 371" d="M395.636,175.956h3.494a1.5,1.5,0,0,0,1.5-1.5V163.727l-4.991,3.744Z" transform="translate(-378.665 -159.48)" fill="#f5f9ff"/>
      <path id="Path_372" data-name="Path 372" d="M395.636,66.226v6.489l4.991-3.744v-2a2.246,2.246,0,0,0-3.594-1.8Z" transform="translate(-378.665 -64.724)" fill="#f5f9ff"/>
    </g>
    <path id="Path_373" data-name="Path 373" d="M116.364,106.216V99.727l5.99,4.492,5.99-4.492v6.489l-5.99,4.492Z" transform="translate(-111.373 -33.501)" fill="#f5f9ff" fill-rule="evenodd"/>
    <path id="Path_374" data-name="Path 374" d="M0,66.974v2l4.991,3.744V66.226l-1.4-1.048A2.246,2.246,0,0,0,0,66.974Z" fill="#f5f9ff"/>
  </g>
</svg>
