<svg xmlns="http://www.w3.org/2000/svg" xmlns:xlink="http://www.w3.org/1999/xlink" width="23.523" height="22.935" viewBox="0 0 23.523 22.935">
  <defs>
    <radialGradient id="radial-gradient" cx="0.329" cy="0.224" r="0.781" gradientTransform="translate(-0.01 0.01) scale(0.973 0.968)" gradientUnits="objectBoundingBox">
      <stop offset="0" stop-color="#34364e" stop-opacity="0.98"/>
      <stop offset="1" stop-color="#0c0824"/>
    </radialGradient>
  </defs>
  <g id="photoshop-cc-4" transform="translate(0 -130.746)">
    <path id="Path_189" data-name="Path 189" d="M24.8,155.549H46.366v20.975H24.8Z" transform="translate(-23.823 -23.823)" fill="url(#radial-gradient)"/>
    <path id="Path_190" data-name="Path 190" d="M.98,131.726H22.543V152.7H.98ZM0,153.681H23.523V130.746H0Zm15.859-13.526c-.774,0-1.039.392-1.039.715,0,.353.176.6,1.215,1.137,1.539.745,2.019,1.46,2.019,2.509,0,1.568-1.2,2.411-2.813,2.411a4.264,4.264,0,0,1-2.009-.421c-.069-.029-.078-.078-.078-.157v-1.441c0-.1.049-.127.118-.078a3.638,3.638,0,0,0,1.97.578c.774,0,1.1-.323,1.1-.764,0-.353-.225-.666-1.215-1.176-1.392-.666-1.97-1.343-1.97-2.47a2.409,2.409,0,0,1,2.705-2.313,4.507,4.507,0,0,1,1.754.274.217.217,0,0,1,.1.2V140.5c0,.078-.049.127-.147.1A3.311,3.311,0,0,0,15.859,140.155Zm-8.429,1.166c.225.02.4.02.794.02,1.147,0,2.225-.4,2.225-1.96,0-1.245-.774-1.872-2.078-1.872-.392,0-.765.02-.941.029Zm-1.745-5.2c0-.069.137-.118.216-.118.627-.029,1.558-.049,2.529-.049,2.715,0,3.773,1.49,3.773,3.391,0,2.49-1.8,3.558-4.019,3.558-.372,0-.5-.02-.765-.02v3.764c0,.078-.029.118-.118.118H5.8c-.078,0-.118-.029-.118-.118V136.117Z" fill="#31c5f0"/>
  </g>
</svg>
