<svg xmlns="http://www.w3.org/2000/svg" width="23.123" height="20.592" viewBox="0 0 23.123 20.592">
  <g id="react-2" transform="translate(-175.7 -78)">
    <path id="Path_180" data-name="Path 180" d="M198.823,88.3c0-1.532-1.918-2.983-4.859-3.884.679-3,.377-5.382-.952-6.146A2.066,2.066,0,0,0,191.956,78v1.051a1.091,1.091,0,0,1,.537.123c.641.368.919,1.767.7,3.568-.052.443-.137.91-.24,1.386a22.844,22.844,0,0,0-2.993-.514A22.994,22.994,0,0,0,188,81.262c1.536-1.428,2.979-2.21,3.959-2.21V78c-1.3,0-2.993.924-4.708,2.526-1.716-1.593-3.412-2.507-4.708-2.507V79.07c.976,0,2.423.778,3.959,2.2a22.263,22.263,0,0,0-1.947,2.352,22.012,22.012,0,0,0-3,.518c-.108-.471-.189-.928-.245-1.367-.222-1.8.052-3.2.688-3.573a1.049,1.049,0,0,1,.542-.123V78.024a2.1,2.1,0,0,0-1.065.264c-1.324.764-1.621,3.144-.938,6.132-2.932.9-4.84,2.352-4.84,3.879s1.918,2.983,4.859,3.884c-.679,3-.377,5.382.952,6.146a2.072,2.072,0,0,0,1.06.264c1.3,0,2.993-.924,4.708-2.526,1.716,1.593,3.412,2.507,4.708,2.507a2.1,2.1,0,0,0,1.065-.264c1.324-.764,1.621-3.144.938-6.132,2.922-.9,4.831-2.352,4.831-3.879Zm-6.137-3.144c-.174.608-.391,1.235-.636,1.862-.193-.377-.4-.754-.617-1.131s-.448-.745-.679-1.1C191.423,84.881,192.069,85,192.686,85.155Zm-2.159,5.02c-.368.636-.745,1.24-1.136,1.8-.7.061-1.414.094-2.13.094s-1.423-.033-2.121-.09q-.587-.841-1.141-1.791-.537-.926-.98-1.876c.292-.632.622-1.263.976-1.881.368-.636.745-1.24,1.136-1.8.7-.061,1.414-.094,2.13-.094s1.423.033,2.121.09q.587.841,1.141,1.791.537.926.98,1.876C191.206,88.925,190.881,89.557,190.528,90.174Zm1.522-.613c.255.632.471,1.263.65,1.876-.617.151-1.268.278-1.942.377.231-.363.462-.735.679-1.117S191.857,89.939,192.05,89.561Zm-4.779,5.029a19.432,19.432,0,0,1-1.31-1.508c.424.019.858.033,1.3.033s.881-.009,1.31-.033A18.4,18.4,0,0,1,187.271,94.59Zm-3.507-2.776c-.669-.1-1.315-.222-1.932-.372.174-.608.391-1.235.636-1.862.193.377.4.754.617,1.131S183.533,91.456,183.764,91.814Zm3.483-9.808a19.432,19.432,0,0,1,1.31,1.508c-.424-.019-.858-.033-1.3-.033s-.881.009-1.31.033A18.4,18.4,0,0,1,187.247,82.006Zm-3.488,2.776c-.231.363-.462.735-.679,1.117s-.419.754-.613,1.131c-.255-.632-.471-1.263-.65-1.876C182.435,85.009,183.086,84.881,183.76,84.782Zm-4.265,5.9c-1.668-.712-2.748-1.645-2.748-2.385s1.079-1.678,2.748-2.385c.405-.174.848-.33,1.306-.476a22.638,22.638,0,0,0,1.06,2.87,22.317,22.317,0,0,0-1.046,2.856C180.347,91.018,179.9,90.858,179.494,90.683Zm2.536,6.735c-.641-.368-.919-1.767-.7-3.568.052-.443.137-.91.24-1.386a22.844,22.844,0,0,0,2.993.514,22.99,22.99,0,0,0,1.961,2.357c-1.536,1.428-2.979,2.21-3.959,2.21A1.125,1.125,0,0,1,182.03,97.418Zm11.18-3.591c.222,1.8-.052,3.2-.688,3.573a1.049,1.049,0,0,1-.542.123c-.976,0-2.423-.778-3.959-2.2a22.262,22.262,0,0,0,1.947-2.352,22.009,22.009,0,0,0,3-.518A13.193,13.193,0,0,1,193.21,93.827Zm1.815-3.144c-.405.174-.848.33-1.306.476a22.633,22.633,0,0,0-1.06-2.87,22.315,22.315,0,0,0,1.046-2.856c.467.146.91.306,1.324.481,1.668.712,2.748,1.645,2.748,2.385S196.693,89.976,195.024,90.683Z" fill="#61dafb"/>
    <circle id="Ellipse_8" data-name="Ellipse 8" cx="2.154" cy="2.154" r="2.154" transform="translate(185.103 86.144)" fill="#61dafb"/>
  </g>
</svg>
