<svg xmlns="http://www.w3.org/2000/svg" xmlns:xlink="http://www.w3.org/1999/xlink" width="23.145" height="23.145" viewBox="0 0 23.145 23.145">
  <defs>
    <clipPath id="clip-path">
      <path id="Path_367" data-name="Path 367" d="M0,0H23.145V23.145H0Z"/>
    </clipPath>
  </defs>
  <g id="wordpress-blue" clip-path="url(#clip-path)">
    <path id="Path_362" data-name="Path 362" d="M162.548,38.594h-4.016v.426c1.256,0,1.458.269,1.458,1.862v2.872c0,1.593-.2,1.884-1.458,1.884A4.1,4.1,0,0,1,156.02,44l-1.032-1.122a2.253,2.253,0,0,0,2.131-2.109c0-1.234-1.054-2.176-3.028-2.176h-3.948v.426c1.256,0,1.458.269,1.458,1.862v2.872c0,1.593-.2,1.884-1.458,1.884v.426h4.464v-.426c-1.256,0-1.458-.292-1.458-1.884v-.807h.381l2.49,3.118h6.528c3.208,0,4.6-1.7,4.6-3.746S165.756,38.594,162.548,38.594Zm-9.4,3.656V39.267h.92a1.492,1.492,0,0,1,0,2.983Zm9.466,3.118h-.157c-.807,0-.92-.2-.92-1.234V39.267h1.077c2.333,0,2.759,1.7,2.759,3.028C165.375,43.664,164.948,45.369,162.616,45.369Zm-24.967-2.288L139.2,38.5c.449-1.323.247-1.7-1.189-1.7v-.449h4.217V36.8c-1.413,0-1.75.336-2.31,1.974l-2.558,7.672h-.291l-2.288-7.022-2.333,7.022h-.292l-2.49-7.672c-.538-1.638-.9-1.974-2.2-1.974v-.449h4.98V36.8c-1.324,0-1.683.314-1.211,1.7l1.5,4.577L135,36.351h.427Zm7.627,3.275a4.293,4.293,0,0,1-4.486-4.038,4.514,4.514,0,0,1,8.973,0A4.292,4.292,0,0,1,145.275,46.356Zm0-7.358c-2.064,0-2.782,1.861-2.782,3.32,0,1.481.718,3.32,2.782,3.32,2.086,0,2.8-1.839,2.8-3.32C148.08,40.86,147.362,39,145.275,39Z" transform="translate(-103.386 -29.484)" fill="#00749a"/>
    <path id="Path_363" data-name="Path 363" d="M344.807,45.615v.449H339.67v-.449c1.5,0,1.772-.381,1.772-2.625V39.4c0-2.244-.269-2.6-1.772-2.6V36.35h4.643c2.31,0,3.59,1.189,3.59,2.782,0,1.548-1.279,2.759-3.59,2.759h-1.279v1.1C343.035,45.234,343.3,45.615,344.807,45.615Zm-.494-8.457h-1.279v3.9h1.279a1.753,1.753,0,0,0,1.839-1.929A1.778,1.778,0,0,0,344.313,37.158Zm19,6.8-.112.4c-.2.74-.449,1.009-2.041,1.009h-.314c-1.166,0-1.368-.269-1.368-1.862V42.475c1.75,0,1.885.157,1.885,1.323h.426V40.455h-.426c0,1.166-.135,1.323-1.885,1.323V39.267h1.234c1.593,0,1.84.269,2.041,1.009l.113.426h.359l-.157-2.109h-6.6v.426c1.256,0,1.458.269,1.458,1.862v2.872c0,1.457-.171,1.824-1.162,1.877A4.135,4.135,0,0,1,354.3,44l-1.032-1.122a2.253,2.253,0,0,0,2.131-2.109c0-1.234-1.054-2.176-3.028-2.176h-3.948v.426c1.256,0,1.458.269,1.458,1.862v2.872c0,1.593-.2,1.884-1.458,1.884v.426h4.464v-.426c-1.256,0-1.458-.292-1.458-1.884v-.807h.382l2.49,3.118h9.22l.135-2.108h-.337ZM351.425,42.25V39.267h.92a1.492,1.492,0,0,1,0,2.983Zm16.443,4.105a3.316,3.316,0,0,1-2.019-.763,1.61,1.61,0,0,0-.359.763h-.426v-3.1h.449a2.489,2.489,0,0,0,2.535,2.355,1.155,1.155,0,0,0,1.3-1.077c0-.583-.516-1.032-1.436-1.458l-1.279-.606a2.441,2.441,0,0,1-1.57-2.154,2.2,2.2,0,0,1,2.4-2,2.809,2.809,0,0,1,1.75.583,1.267,1.267,0,0,0,.292-.606h.426v2.647h-.471c-.157-1.054-.74-1.929-1.929-1.929-.628,0-1.211.359-1.211.92,0,.583.471.9,1.548,1.391l1.234.606a2.341,2.341,0,0,1,1.5,2.019A2.533,2.533,0,0,1,367.867,46.355Zm6.909,0a3.315,3.315,0,0,1-2.019-.763,1.61,1.61,0,0,0-.359.763h-.426v-3.1h.449a2.489,2.489,0,0,0,2.535,2.355,1.155,1.155,0,0,0,1.3-1.077c0-.583-.516-1.032-1.436-1.458l-1.279-.606a2.441,2.441,0,0,1-1.57-2.154,2.2,2.2,0,0,1,2.4-2,2.81,2.81,0,0,1,1.75.583,1.266,1.266,0,0,0,.291-.606h.426v2.647h-.471c-.157-1.054-.74-1.929-1.929-1.929-.628,0-1.212.359-1.212.92,0,.583.471.9,1.548,1.391l1.234.606a2.341,2.341,0,0,1,1.5,2.019A2.533,2.533,0,0,1,374.776,46.355Z" transform="translate(-275.505 -29.483)" fill="#464342"/>
    <g id="Group_116" data-name="Group 116">
      <path id="Path_364" data-name="Path 364" d="M8.708,18.635a9.93,9.93,0,0,0,5.6,8.935L9.567,14.595a9.89,9.89,0,0,0-.86,4.04Zm16.63-.5a5.227,5.227,0,0,0-.819-2.738,4.647,4.647,0,0,1-.975-2.328,1.719,1.719,0,0,1,1.667-1.762c.044,0,.086.005.129.008a9.926,9.926,0,0,0-15,1.869c.233.007.453.012.639.012,1.038,0,2.646-.126,2.646-.126a.41.41,0,0,1,.064.818s-.538.063-1.136.095l3.615,10.753,2.173-6.516-1.547-4.238c-.535-.031-1.041-.095-1.041-.095a.41.41,0,0,1,.063-.818s1.639.126,2.615.126c1.038,0,2.646-.126,2.646-.126a.41.41,0,0,1,.064.818s-.539.063-1.136.095l3.588,10.672.99-3.309A11.987,11.987,0,0,0,25.337,18.134Z" transform="translate(-7.063 -7.063)" fill="#00749a"/>
      <path id="Path_365" data-name="Path 365" d="M49.395,41.677l-2.979,8.655a9.93,9.93,0,0,0,6.1-.158.841.841,0,0,1-.071-.137Zm8.537-5.631A7.619,7.619,0,0,1,58,37.067a9.365,9.365,0,0,1-.755,3.556L54.211,49.39a9.929,9.929,0,0,0,3.72-13.344Z" transform="translate(-37.648 -29.237)" fill="#00749a"/>
      <path id="Path_366" data-name="Path 366" d="M11.573,0A11.573,11.573,0,1,0,23.146,11.572,11.586,11.586,0,0,0,11.573,0Zm0,22.615A11.042,11.042,0,1,1,22.614,11.572,11.055,11.055,0,0,1,11.573,22.615Z" fill="#00749a"/>
    </g>
  </g>
</svg>
