<svg id="adobe-xd-1" xmlns="http://www.w3.org/2000/svg" width="23.077" height="22.5" viewBox="0 0 23.077 22.5">
  <path id="Path_186" data-name="Path 186" d="M18.99,22.5H4.086A4.083,4.083,0,0,1,0,18.413V4.086A4.083,4.083,0,0,1,4.086,0h14.9a4.083,4.083,0,0,1,4.086,4.086V18.413A4.083,4.083,0,0,1,18.99,22.5Z" fill="#ff26be"/>
  <path id="Path_187" data-name="Path 187" d="M121.863,124.776H107.69a3.5,3.5,0,0,1-3.49-3.49v-13.6a3.5,3.5,0,0,1,3.49-3.49h14.164a3.49,3.49,0,0,1,3.49,3.49v13.587a3.485,3.485,0,0,1-3.481,3.5Z" transform="translate(-103.238 -103.238)" fill="#2e001f"/>
  <path id="Path_188" data-name="Path 188" d="M471.506,597.857l2.693,5.173c.048.077.019.154-.058.154h-1.674a.189.189,0,0,1-.2-.125c-.616-1.269-1.241-2.538-1.885-3.9h-.019c-.577,1.289-1.212,2.645-1.827,3.914a.185.185,0,0,1-.174.106h-1.585c-.1,0-.106-.077-.057-.135l2.634-5.02-2.548-5.077a.078.078,0,0,1,.057-.135h1.654c.1,0,.135.019.173.106.606,1.269,1.221,2.577,1.8,3.856h.019c.558-1.269,1.173-2.586,1.77-3.846.048-.077.077-.125.174-.125H474c.077,0,.106.058.058.135Zm3.164,1.567a3.761,3.761,0,0,1,3.856-3.99,4.247,4.247,0,0,1,.5.019v-2.548a.1.1,0,0,1,.1-.1h1.519c.077,0,.1.029.1.077v8.827a6.871,6.871,0,0,0,.048.942c0,.058-.019.077-.077.106a5.725,5.725,0,0,1-2.462.558c-2.087.008-3.578-1.279-3.577-3.9Zm4.355-2.461a1.444,1.444,0,0,0-.558-.1c-1.212,0-2.058.932-2.058,2.481,0,1.77.866,2.481,1.952,2.481a1.8,1.8,0,0,0,.664-.106v-4.76Z" transform="translate(-462.382 -587.328)" fill="#ffd9f2"/>
</svg>
